<svg xmlns="http://www.w3.org/2000/svg" xmlns:xlink="http://www.w3.org/1999/xlink" xmlns:lucid="lucid" width="1251.73" height="1129.86"><g transform="translate(-94.26043232590337 -44.07116653319963)" lucid:page-tab-id=".Q4MUjXso07N"><path d="M0 0h1500v1500H0z" fill="#fff"/><path d="M771.95 72.57a8 8 0 0 1 8-8h537.54a8 8 0 0 1 8 8v1072.86a8 8 0 0 1-8 8H779.94a8 8 0 0 1-8-8z" stroke="#000" fill-opacity="0"/><use xlink:href="#a" transform="matrix(1,0,0,1,779.9531486679145,72.57116653319963) translate(112.07592592592599 17.95555555555555)"/><use xlink:href="#b" transform="matrix(1,0,0,1,779.9531486679145,72.57116653319963) translate(215.44506172839507 17.95555555555555)"/><use xlink:href="#c" transform="matrix(1,0,0,1,779.9531486679145,72.57116653319963) translate(277.7283950617284 17.95555555555555)"/><use xlink:href="#d" transform="matrix(1,0,0,1,779.9531486679145,72.57116653319963) translate(307.6543209876543 17.95555555555555)"/><use xlink:href="#e" transform="matrix(1,0,0,1,779.9531486679145,72.57116653319963) translate(376.1098765432098 17.95555555555555)"/><path d="M1120 220c0 33.14-35.82 60-80 60s-80-26.86-80-60 35.82-60 80-60 80 26.86 80 60z" stroke="#000" fill="#4d9eff"/><use xlink:href="#f" transform="matrix(1,0,0,1,984,184) translate(22.44444444444445 28.888888888888886)"/><use xlink:href="#g" transform="matrix(1,0,0,1,984,184) translate(64.8641975308642 28.888888888888886)"/><use xlink:href="#h" transform="matrix(1,0,0,1,984,184) translate(33.802469135802475 50.22222222222222)"/><path d="M1120 380c0 33.14-35.82 60-80 60s-80-26.86-80-60 35.82-60 80-60 80 26.86 80 60z" stroke="#000" fill="#9391ff"/><use xlink:href="#i" transform="matrix(1,0,0,1,984,344) translate(0.716049382716065 39.55555555555556)"/><use xlink:href="#j" transform="matrix(1,0,0,1,984,344) translate(49.06172839506173 39.55555555555556)"/><use xlink:href="#k" transform="matrix(1,0,0,1,984,344) translate(63.87654320987654 39.55555555555556)"/><path d="M440.96 473.46L970.12 250.8M440.97 473.45l-3.24 1.36" stroke="#3a414a" fill="none"/><path d="M970.88 251l-.6.25-.36-.88.36-.15z" stroke="#3a414a" stroke-width=".05" fill="#3a414a"/><path d="M114.76 80.57a16 16 0 0 1 16-16h226.4a16 16 0 0 1 16 16v197.6a16 16 0 0 1-16 16h-226.4a16 16 0 0 1-16-16z" stroke="#4c535d" fill="#fff"/><path d="M160.98 124.8c0 1.22-1 2.22-2.22 2.22-1.23 0-2.22-1-2.22-2.23s1-2.23 2.22-2.23c1.23 0 2.22 1 2.22 2.22z" stroke="#333" fill="#fff"/><path d="M158.76 127.02v6.66c0 .6.14 1.13.43 1.67l4 7.22m-4.44-8l-4.44 8m0-13.33h8.9" stroke="#333" fill="none"/><path d="M154.32 123.46c0-.5.4-.9.9-.9h7.1c.5 0 .9.4.9.9v18.22c0 .5-.4.9-.9.9h-7.1c-.5 0-.9-.4-.9-.9z" fill="none"/><path d="M168.76 164.57c0 4.14-4.48 7.5-10 7.5s-10-3.36-10-7.5c0-4.14 4.48-7.5 10-7.5s10 3.36 10 7.5z" stroke="#fff" fill="#4d9eff"/><path d="M168.76 196.57c0 4.14-4.48 7.5-10 7.5s-10-3.36-10-7.5c0-4.14 4.48-7.5 10-7.5s10 3.36 10 7.5z" stroke="#fff" fill="#ff80df"/><path d="M168.76 228.57c0 4.14-4.48 7.5-10 7.5s-10-3.36-10-7.5c0-4.14 4.48-7.5 10-7.5s10 3.36 10 7.5z" stroke="#fff" fill="#9391ff"/><path d="M168.76 260.57c0 4.14-4.48 7.5-10 7.5s-10-3.36-10-7.5c0-4.14 4.48-7.5 10-7.5s10 3.36 10 7.5z" stroke="#fff" fill="#00c2a8"/><use xlink:href="#l" transform="matrix(1,0,0,1,146.76043232590337,88.57116653319963) translate(0 15.6)"/><use xlink:href="#m" transform="matrix(1,0,0,1,146.76043232590337,88.57116653319963) translate(37.95 15.6)"/><use xlink:href="#n" transform="matrix(1,0,0,1,146.76043232590337,88.57116653319963) translate(82.95 15.6)"/><use xlink:href="#o" transform="matrix(1,0,0,1,182.76043232590337,120.57116653319963) translate(0 14.8)"/><use xlink:href="#p" transform="matrix(1,0,0,1,182.76043232590337,152.57116653319963) translate(0 14.8)"/><use xlink:href="#q" transform="matrix(1,0,0,1,182.76043232590337,152.57116653319963) translate(28.73888888888889 14.8)"/><use xlink:href="#p" transform="matrix(1,0,0,1,182.76043232590337,184.57116653319963) translate(0 14.8)"/><use xlink:href="#q" transform="matrix(1,0,0,1,182.76043232590337,184.57116653319963) translate(28.73888888888889 14.8)"/><use xlink:href="#p" transform="matrix(1,0,0,1,182.76043232590337,216.57116653319963) translate(0 14.8)"/><use xlink:href="#q" transform="matrix(1,0,0,1,182.76043232590337,216.57116653319963) translate(28.73888888888889 14.8)"/><use xlink:href="#p" transform="matrix(1,0,0,1,182.76043232590337,248.57116653319963) translate(0 14.8)"/><use xlink:href="#q" transform="matrix(1,0,0,1,182.76043232590337,248.57116653319963) translate(28.73888888888889 14.8)"/><path d="M459.75 414.32c0 10.9-8.84 19.75-19.75 19.75-10.9 0-19.75-8.84-19.75-19.75 0-10.9 8.84-19.75 19.75-19.75 10.9 0 19.75 8.84 19.75 19.75z" stroke="#333" fill="#fff"/><path d="M440 434.07v49.3a20.7 20.7 0 0 0 3.2 11.07l36.8 58.13m-40-63.2l-40 63.2m0-98.75h80" stroke="#333" fill="none"/><path d="M400 400.57a6 6 0 0 1 6-6h68a6 6 0 0 1 6 6v168a6 6 0 0 1-6 6h-68a6 6 0 0 1-6-6z" fill="none"/><use xlink:href="#r" transform="matrix(1,0,0,1,320,552.5711665331996) translate(90.98765432098766 17.77777777777778)"/><path d="M1120 520c0 33.14-35.82 60-80 60s-80-26.86-80-60 35.82-60 80-60 80 26.86 80 60z" stroke="#000" fill="#4d9eff"/><use xlink:href="#s" transform="matrix(1,0,0,1,984,484) translate(2.790123456790141 39.55555555555556)"/><use xlink:href="#t" transform="matrix(1,0,0,1,984,484) translate(65.85185185185185 39.55555555555556)"/><path d="M1120 680c0 33.14-35.82 60-80 60s-80-26.86-80-60 35.82-60 80-60 80 26.86 80 60z" stroke="#000" fill="#ff80df"/><use xlink:href="#u" transform="matrix(1,0,0,1,984,644) translate(6.172839506172849 28.888888888888886)"/><use xlink:href="#v" transform="matrix(1,0,0,1,984,644) translate(61.432098765432094 28.888888888888886)"/><use xlink:href="#w" transform="matrix(1,0,0,1,984,644) translate(41.18518518518519 50.22222222222222)"/><path d="M1120 860c0 33.14-35.82 60-80 60s-80-26.86-80-60 35.82-60 80-60 80 26.86 80 60z" stroke="#000" fill="#9391ff"/><use xlink:href="#f" transform="matrix(1,0,0,1,984,824) translate(18.518518518518526 28.888888888888886)"/><use xlink:href="#x" transform="matrix(1,0,0,1,984,824) translate(60.93827160493827 28.888888888888886)"/><use xlink:href="#h" transform="matrix(1,0,0,1,984,824) translate(33.802469135802475 50.22222222222222)"/><path d="M441 481.5h249.75a12 12 0 0 0 12-12V392a12 12 0 0 1 12-12H959M441 481.5h-3.5" stroke="#333" fill="none"/><path d="M959.5 380V380.47h-.5v-.96h.5z" stroke="#333" stroke-width=".05" fill="#333"/><path d="M440.5 490.3h276.36a12 12 0 0 1 12 12v5.7a12 12 0 0 0 12 12H959M440.5 490.3H437" stroke="#333" fill="none"/><path d="M959.5 520V520.47h-.5v-.96h.5z" stroke="#333" stroke-width=".05" fill="#333"/><path d="M479.17 549.54h203.95a12 12 0 0 1 12 12v292.9a12 12 0 0 0 12 12h252.34M479.2 549.54h-3.53" stroke="#333" fill="none"/><path d="M959.9 866.14l.14.76h-.6v-.95h.45z" stroke="#333" stroke-width=".05" fill="#333"/><path d="M459.75 699.75c0 10.9-8.84 19.75-19.75 19.75-10.9 0-19.75-8.84-19.75-19.75 0-10.9 8.84-19.75 19.75-19.75 10.9 0 19.75 8.84 19.75 19.75z" stroke="#333" fill="#fff"/><path d="M440 719.5v49.3a20.7 20.7 0 0 0 3.2 11.07L480 838m-40-63.2L400 838m0-98.75h80" stroke="#333" fill="none"/><path d="M400 686a6 6 0 0 1 6-6h68a6 6 0 0 1 6 6v168a6 6 0 0 1-6 6h-68a6 6 0 0 1-6-6z" fill="none"/><g><use xlink:href="#y" transform="matrix(1,0,0,1,320,838) translate(96.60493827160494 17.77777777777778)"/></g><path d="M441 761.64h249.12c0-2.76 2.24-5 5-5s5 2.24 5 5h109.32a12 12 0 0 0 12-12V525c-2.76 0-5-2.24-5-5s2.24-5 5-5V385c-2.76 0-5-2.24-5-5s2.24-5 5-5v-56.64c-2.76 0-5-2.23-5-5 0-2.76 2.24-5 5-5V232a12 12 0 0 1 12-12h109.68M441 761.64h-3.5" stroke="#333" fill="none"/><path d="M957.88 220l-14.26 4.63v-9.26z" stroke="#333" fill="#333"/><path d="M441.04 770H508a12 12 0 0 1 12 12v116a12 12 0 0 0 12 12h394.5a12 12 0 0 0 12-12v-26.57c-2.76 0-5-2.24-5-5s2.24-5 5-5v-.72a.7.7 0 0 1 .7-.7h3.92M441.05 770h-3.5" stroke="#333" fill="none"/><path d="M957.88 860l-14.26 4.63v-9.26z" stroke="#333" fill="#333"/><path d="M480.5 770h18.82a1.68 1.68 0 0 0 1.68-1.68v-1.68c-2.76 0-5-2.24-5-5s2.24-5 5-5V732a12 12 0 0 1 12-12h177.12c0-2.76 2.24-5 5-5s5 2.24 5 5h10.46a10.46 10.46 0 0 0 10.47-10.46V495.3c-2.77 0-5-2.23-5-5 0-2.75 2.23-5 5-5v-78.05a12 12 0 0 1 12-12h83.4c0-2.77 2.23-5 5-5 2.75 0 5 2.23 5 5H945.7" stroke="#333" fill="none"/><path d="M480.5 770.48H477v-.96h3.5z" stroke="#333" stroke-width=".05" fill="#333"/><path d="M960.47 395.25l-14.26 4.63v-9.27z" stroke="#333" fill="#333"/><defs><path fill="#3a414a" d="M197 0v-115H63V0H30v-248h33v105h134v-105h34V0h-34" id="z"/><path fill="#3a414a" d="M141-36C126-15 110 5 73 4 37 3 15-17 15-53c-1-64 63-63 125-63 3-35-9-54-41-54-24 1-41 7-42 31l-33-3c5-37 33-52 76-52 45 0 72 20 72 64v82c-1 20 7 32 28 27v20c-31 9-61-2-59-35zM48-53c0 20 12 33 32 33 41-3 63-29 60-74-43 2-92-5-92 41" id="A"/><path fill="#3a414a" d="M117-194c89-4 53 116 60 194h-32v-121c0-31-8-49-39-48C34-167 62-67 57 0H25l-1-190h30c1 10-1 24 2 32 11-22 29-35 61-36" id="B"/><path fill="#3a414a" d="M177-190C167-65 218 103 67 71c-23-6-38-20-44-43l32-5c15 47 100 32 89-28v-30C133-14 115 1 83 1 29 1 15-40 15-95c0-56 16-97 71-98 29-1 48 16 59 35 1-10 0-23 2-32h30zM94-22c36 0 50-32 50-73 0-42-14-75-50-75-39 0-46 34-46 75s6 73 46 73" id="C"/><path fill="#3a414a" d="M210-169c-67 3-38 105-44 169h-31v-121c0-29-5-50-35-48C34-165 62-65 56 0H25l-1-190h30c1 10-1 24 2 32 10-44 99-50 107 0 11-21 27-35 58-36 85-2 47 119 55 194h-31v-121c0-29-5-49-35-48" id="D"/><g id="a"><use transform="matrix(0.06234567901234565,0,0,0.06234567901234565,0,0)" xlink:href="#z"/><use transform="matrix(0.06234567901234565,0,0,0.06234567901234565,16.147530864197524,0)" xlink:href="#A"/><use transform="matrix(0.06234567901234565,0,0,0.06234567901234565,28.616666666666653,0)" xlink:href="#B"/><use transform="matrix(0.06234567901234565,0,0,0.06234567901234565,41.085802469135785,0)" xlink:href="#C"/><use transform="matrix(0.06234567901234565,0,0,0.06234567901234565,53.55493827160492,0)" xlink:href="#D"/><use transform="matrix(0.06234567901234565,0,0,0.06234567901234565,72.19629629629627,0)" xlink:href="#A"/><use transform="matrix(0.06234567901234565,0,0,0.06234567901234565,84.6654320987654,0)" xlink:href="#B"/></g><path fill="#3a414a" d="M100-194c63 0 86 42 84 106H49c0 40 14 67 53 68 26 1 43-12 49-29l28 8c-11 28-37 45-77 45C44 4 14-33 15-96c1-61 26-98 85-98zm52 81c6-60-76-77-97-28-3 7-6 17-6 28h103" id="E"/><g id="b"><use transform="matrix(0.06234567901234565,0,0,0.06234567901234565,0,0)" xlink:href="#C"/><use transform="matrix(0.06234567901234565,0,0,0.06234567901234565,12.46913580246913,0)" xlink:href="#A"/><use transform="matrix(0.06234567901234565,0,0,0.06234567901234565,24.93827160493826,0)" xlink:href="#D"/><use transform="matrix(0.06234567901234565,0,0,0.06234567901234565,43.57962962962961,0)" xlink:href="#E"/></g><path fill="#3a414a" d="M115-194c53 0 69 39 70 98 0 66-23 100-70 100C84 3 66-7 56-30L54 0H23l1-261h32v101c10-23 28-34 59-34zm-8 174c40 0 45-34 45-75 0-40-5-75-45-74-42 0-51 32-51 76 0 43 10 73 51 73" id="F"/><path fill="#3a414a" d="M179-190L93 31C79 59 56 82 12 73V49c39 6 53-20 64-50L1-190h34L92-34l54-156h33" id="G"/><g id="c"><use transform="matrix(0.06234567901234565,0,0,0.06234567901234565,0,0)" xlink:href="#F"/><use transform="matrix(0.06234567901234565,0,0,0.06234567901234565,12.46913580246913,0)" xlink:href="#G"/></g><path fill="#3a414a" d="M240 0l2-218c-23 76-54 145-80 218h-23L58-218 59 0H30v-248h44l77 211c21-75 51-140 76-211h43V0h-30" id="H"/><path fill="#3a414a" d="M114-163C36-179 61-72 57 0H25l-1-190h30c1 12-1 29 2 39 6-27 23-49 58-41v29" id="I"/><path fill="#3a414a" d="M135-143c-3-34-86-38-87 0 15 53 115 12 119 90S17 21 10-45l28-5c4 36 97 45 98 0-10-56-113-15-118-90-4-57 82-63 122-42 12 7 21 19 24 35" id="J"/><path fill="#3a414a" d="M100-194c62-1 85 37 85 99 1 63-27 99-86 99S16-35 15-95c0-66 28-99 85-99zM99-20c44 1 53-31 53-75 0-43-8-75-51-75s-53 32-53 75 10 74 51 75zM76-211c8-23 27-35 38-54h36v5l-58 49H76" id="K"/><g id="d"><use transform="matrix(0.06234567901234565,0,0,0.06234567901234565,0,0)" xlink:href="#H"/><use transform="matrix(0.06234567901234565,0,0,0.06234567901234565,18.64135802469135,0)" xlink:href="#A"/><use transform="matrix(0.06234567901234565,0,0,0.06234567901234565,31.110493827160482,0)" xlink:href="#I"/><use transform="matrix(0.06234567901234565,0,0,0.06234567901234565,38.52962962962962,0)" xlink:href="#J"/><use transform="matrix(0.06234567901234565,0,0,0.06234567901234565,49.75185185185184,0)" xlink:href="#K"/></g><path fill="#3a414a" d="M141-36C126-15 110 5 73 4 37 3 15-17 15-53c-1-64 63-63 125-63 3-35-9-54-41-54-24 1-41 7-42 31l-33-3c5-37 33-52 76-52 45 0 72 20 72 64v82c-1 20 7 32 28 27v20c-31 9-61-2-59-35zM48-53c0 20 12 33 32 33 41-3 63-29 60-74-43 2-92-5-92 41zm25-158c8-23 27-35 38-54h36v5l-58 49H73" id="L"/><path fill="#3a414a" d="M59-47c-2 24 18 29 38 22v24C64 9 27 4 27-40v-127H5v-23h24l9-43h21v43h35v23H59v120" id="M"/><path fill="#3a414a" d="M100-194c63 0 86 42 84 106H49c0 40 14 67 53 68 26 1 43-12 49-29l28 8c-11 28-37 45-77 45C44 4 14-33 15-96c1-61 26-98 85-98zm52 81c6-60-76-77-97-28-3 7-6 17-6 28h103zm-74-98c8-23 27-35 38-54h36v5l-58 49H78" id="N"/><g id="e"><use transform="matrix(0.06234567901234565,0,0,0.06234567901234565,0,0)" xlink:href="#H"/><use transform="matrix(0.06234567901234565,0,0,0.06234567901234565,18.64135802469135,0)" xlink:href="#L"/><use transform="matrix(0.06234567901234565,0,0,0.06234567901234565,31.110493827160482,0)" xlink:href="#M"/><use transform="matrix(0.06234567901234565,0,0,0.06234567901234565,37.345061728395045,0)" xlink:href="#N"/></g><path fill="#3a414a" d="M185-189c-5-48-123-54-124 2 14 75 158 14 163 119 3 78-121 87-175 55-17-10-28-26-33-46l33-7c5 56 141 63 141-1 0-78-155-14-162-118-5-82 145-84 179-34 5 7 8 16 11 25" id="O"/><g id="f"><use transform="matrix(0.049382716049382706,0,0,0.049382716049382706,0,0)" xlink:href="#O"/><use transform="matrix(0.049382716049382706,0,0,0.049382716049382706,11.85185185185185,0)" xlink:href="#M"/><use transform="matrix(0.049382716049382706,0,0,0.049382716049382706,16.79012345679012,0)" xlink:href="#A"/><use transform="matrix(0.049382716049382706,0,0,0.049382716049382706,26.66666666666666,0)" xlink:href="#I"/><use transform="matrix(0.049382716049382706,0,0,0.049382716049382706,32.5432098765432,0)" xlink:href="#M"/></g><path fill="#3a414a" d="M106-169C34-169 62-67 57 0H25v-261h32l-1 103c12-21 28-36 61-36 89 0 53 116 60 194h-32v-121c2-32-8-49-39-48" id="P"/><g id="g"><use transform="matrix(0.049382716049382706,0,0,0.049382716049382706,0,0)" xlink:href="#M"/><use transform="matrix(0.049382716049382706,0,0,0.049382716049382706,4.93827160493827,0)" xlink:href="#P"/><use transform="matrix(0.049382716049382706,0,0,0.049382716049382706,14.814814814814811,0)" xlink:href="#E"/></g><g id="h"><use transform="matrix(0.049382716049382706,0,0,0.049382716049382706,0,0)" xlink:href="#C"/><use transform="matrix(0.049382716049382706,0,0,0.049382716049382706,9.87654320987654,0)" xlink:href="#A"/><use transform="matrix(0.049382716049382706,0,0,0.049382716049382706,19.75308641975308,0)" xlink:href="#D"/><use transform="matrix(0.049382716049382706,0,0,0.049382716049382706,34.51851851851851,0)" xlink:href="#E"/></g><path fill="#3a414a" d="M143 0L79-87 56-68V0H24v-261h32v163l83-92h37l-77 82L181 0h-38" id="Q"/><g id="i"><use transform="matrix(0.049382716049382706,0,0,0.049382716049382706,0,0)" xlink:href="#H"/><use transform="matrix(0.049382716049382706,0,0,0.049382716049382706,14.765432098765428,0)" xlink:href="#A"/><use transform="matrix(0.049382716049382706,0,0,0.049382716049382706,24.641975308641968,0)" xlink:href="#Q"/><use transform="matrix(0.049382716049382706,0,0,0.049382716049382706,33.53086419753085,0)" xlink:href="#E"/></g><use transform="matrix(0.049382716049382706,0,0,0.049382716049382706,0,0)" xlink:href="#A" id="j"/><path fill="#3a414a" d="M84 4C-5 8 30-112 23-190h32v120c0 31 7 50 39 49 72-2 45-101 50-169h31l1 190h-30c-1-10 1-25-2-33-11 22-28 36-60 37" id="R"/><g id="k"><use transform="matrix(0.049382716049382706,0,0,0.049382716049382706,0,0)" xlink:href="#C"/><use transform="matrix(0.049382716049382706,0,0,0.049382716049382706,9.87654320987654,0)" xlink:href="#R"/><use transform="matrix(0.049382716049382706,0,0,0.049382716049382706,19.75308641975308,0)" xlink:href="#E"/><use transform="matrix(0.049382716049382706,0,0,0.049382716049382706,29.629629629629623,0)" xlink:href="#J"/><use transform="matrix(0.049382716049382706,0,0,0.049382716049382706,38.51851851851851,0)" xlink:href="#J"/></g><path d="M238-95c0 69-44 99-111 99C63 4 22-25 22-93v-155h51v151c-1 38 19 59 55 60 90 1 49-130 58-211h52v153" id="S"/><path d="M137-138c1-29-70-34-71-4 15 46 118 7 119 86 1 83-164 76-172 9l43-7c4 19 20 25 44 25 33 8 57-30 24-41C81-84 22-81 20-136c-2-80 154-74 161-7" id="T"/><path d="M185-48c-13 30-37 53-82 52C43 2 14-33 14-96s30-98 90-98c62 0 83 45 84 108H66c0 31 8 55 39 56 18 0 30-7 34-22zm-45-69c5-46-57-63-70-21-2 6-4 13-4 21h74" id="U"/><g id="l"><use transform="matrix(0.05,0,0,0.05,0,0)" xlink:href="#S"/><use transform="matrix(0.05,0,0,0.05,12.950000000000001,0)" xlink:href="#T"/><use transform="matrix(0.05,0,0,0.05,22.950000000000003,0)" xlink:href="#U"/></g><path d="M190-63c-7 42-38 67-86 67-59 0-84-38-90-98-12-110 154-137 174-36l-49 2c-2-19-15-32-35-32-30 0-35 28-38 64-6 74 65 87 74 30" id="V"/><path d="M133-34C117-15 103 5 69 4 32 3 11-16 11-54c-1-60 55-63 116-61 1-26-3-47-28-47-18 1-26 9-28 27l-52-2c7-38 36-58 82-57s74 22 75 68l1 82c-1 14 12 18 25 15v27c-30 8-71 5-69-32zm-48 3c29 0 43-24 42-57-32 0-66-3-65 30 0 17 8 27 23 27" id="W"/><g id="m"><use transform="matrix(0.05,0,0,0.05,0,0)" xlink:href="#V"/><use transform="matrix(0.05,0,0,0.05,10,0)" xlink:href="#W"/><use transform="matrix(0.05,0,0,0.05,20,0)" xlink:href="#T"/><use transform="matrix(0.05,0,0,0.05,30,0)" xlink:href="#U"/></g><path d="M114-157C55-157 80-60 75 0H25v-261h50l-1 109c12-26 28-41 61-42 86-1 58 113 63 194h-50c-7-57 23-157-34-157" id="X"/><path d="M135-194c53 0 70 44 70 98 0 56-19 98-73 100-31 1-45-17-59-34 3 33 2 69 2 105H25l-1-265h48c2 10 0 23 3 31 11-24 29-35 60-35zM114-30c33 0 39-31 40-66 0-38-9-64-40-64-56 0-55 130 0 130" id="Y"/><g id="n"><use transform="matrix(0.05,0,0,0.05,0,0)" xlink:href="#T"/><use transform="matrix(0.05,0,0,0.05,10,0)" xlink:href="#X"/><use transform="matrix(0.05,0,0,0.05,20.950000000000003,0)" xlink:href="#W"/><use transform="matrix(0.05,0,0,0.05,30.950000000000003,0)" xlink:href="#Y"/><use transform="matrix(0.05,0,0,0.05,41.900000000000006,0)" xlink:href="#U"/><use transform="matrix(0.05,0,0,0.05,51.900000000000006,0)" xlink:href="#T"/></g><path d="M205 0l-28-72H64L36 0H1l101-248h38L239 0h-34zm-38-99l-47-123c-12 45-31 82-46 123h93" id="Z"/><path d="M96-169c-40 0-48 33-48 73s9 75 48 75c24 0 41-14 43-38l32 2c-6 37-31 61-74 61-59 0-76-41-82-99-10-93 101-131 147-64 4 7 5 14 7 22l-32 3c-4-21-16-35-41-35" id="aa"/><path d="M59-47c-2 24 18 29 38 22v24C64 9 27 4 27-40v-127H5v-23h24l9-43h21v43h35v23H59v120" id="ab"/><path d="M100-194c62-1 85 37 85 99 1 63-27 99-86 99S16-35 15-95c0-66 28-99 85-99zM99-20c44 1 53-31 53-75 0-43-8-75-51-75s-53 32-53 75 10 74 51 75" id="ac"/><path d="M114-163C36-179 61-72 57 0H25l-1-190h30c1 12-1 29 2 39 6-27 23-49 58-41v29" id="ad"/><g id="o"><use transform="matrix(0.03888888888888889,0,0,0.03888888888888889,0,0)" xlink:href="#Z"/><use transform="matrix(0.03888888888888889,0,0,0.03888888888888889,9.333333333333334,0)" xlink:href="#aa"/><use transform="matrix(0.03888888888888889,0,0,0.03888888888888889,16.333333333333336,0)" xlink:href="#ab"/><use transform="matrix(0.03888888888888889,0,0,0.03888888888888889,20.22222222222223,0)" xlink:href="#ac"/><use transform="matrix(0.03888888888888889,0,0,0.03888888888888889,28.000000000000004,0)" xlink:href="#ad"/></g><path d="M232-93c-1 65-40 97-104 97C67 4 28-28 28-90v-158h33c8 89-33 224 67 224 102 0 64-133 71-224h33v155" id="ae"/><path d="M135-143c-3-34-86-38-87 0 15 53 115 12 119 90S17 21 10-45l28-5c4 36 97 45 98 0-10-56-113-15-118-90-4-57 82-63 122-42 12 7 21 19 24 35" id="af"/><path d="M100-194c63 0 86 42 84 106H49c0 40 14 67 53 68 26 1 43-12 49-29l28 8c-11 28-37 45-77 45C44 4 14-33 15-96c1-61 26-98 85-98zm52 81c6-60-76-77-97-28-3 7-6 17-6 28h103" id="ag"/><g id="p"><use transform="matrix(0.03888888888888889,0,0,0.03888888888888889,0,0)" xlink:href="#ae"/><use transform="matrix(0.03888888888888889,0,0,0.03888888888888889,10.072222222222223,0)" xlink:href="#af"/><use transform="matrix(0.03888888888888889,0,0,0.03888888888888889,17.072222222222223,0)" xlink:href="#ag"/></g><path d="M212-179c-10-28-35-45-73-45-59 0-87 40-87 99 0 60 29 101 89 101 43 0 62-24 78-52l27 14C228-24 195 4 139 4 59 4 22-46 18-125c-6-104 99-153 187-111 19 9 31 26 39 46" id="ah"/><path d="M141-36C126-15 110 5 73 4 37 3 15-17 15-53c-1-64 63-63 125-63 3-35-9-54-41-54-24 1-41 7-42 31l-33-3c5-37 33-52 76-52 45 0 72 20 72 64v82c-1 20 7 32 28 27v20c-31 9-61-2-59-35zM48-53c0 20 12 33 32 33 41-3 63-29 60-74-43 2-92-5-92 41" id="ai"/><g id="q"><use transform="matrix(0.03888888888888889,0,0,0.03888888888888889,0,0)" xlink:href="#ah"/><use transform="matrix(0.03888888888888889,0,0,0.03888888888888889,10.072222222222223,0)" xlink:href="#ai"/><use transform="matrix(0.03888888888888889,0,0,0.03888888888888889,17.85,0)" xlink:href="#af"/><use transform="matrix(0.03888888888888889,0,0,0.03888888888888889,24.85,0)" xlink:href="#ag"/></g><path fill="#3a414a" d="M205 0l-28-72H64L36 0H1l101-248h38L239 0h-34zm-38-99l-47-123c-12 45-31 82-46 123h93" id="aj"/><g id="r"><use transform="matrix(0.06172839506172839,0,0,0.06172839506172839,0,0)" xlink:href="#aj"/><use transform="matrix(0.06172839506172839,0,0,0.06172839506172839,14.814814814814813,0)" xlink:href="#C"/><use transform="matrix(0.06172839506172839,0,0,0.06172839506172839,27.160493827160494,0)" xlink:href="#E"/><use transform="matrix(0.06172839506172839,0,0,0.06172839506172839,39.50617283950617,0)" xlink:href="#B"/><use transform="matrix(0.06172839506172839,0,0,0.06172839506172839,51.85185185185185,0)" xlink:href="#M"/></g><path fill="#3a414a" d="M30-248c118-7 216 8 213 122C240-48 200 0 122 0H30v-248zM63-27c89 8 146-16 146-99s-60-101-146-95v194" id="ak"/><path fill="#3a414a" d="M24-231v-30h32v30H24zM24 0v-190h32V0H24" id="al"/><path fill="#3a414a" d="M115-194c55 1 70 41 70 98S169 2 115 4C84 4 66-9 55-30l1 105H24l-1-265h31l2 30c10-21 28-34 59-34zm-8 174c40 0 45-34 45-75s-6-73-45-74c-42 0-51 32-51 76 0 43 10 73 51 73" id="am"/><path fill="#3a414a" d="M24 0v-261h32V0H24" id="an"/><g id="s"><use transform="matrix(0.049382716049382706,0,0,0.049382716049382706,0,0)" xlink:href="#ak"/><use transform="matrix(0.049382716049382706,0,0,0.049382716049382706,12.790123456790122,0)" xlink:href="#al"/><use transform="matrix(0.049382716049382706,0,0,0.049382716049382706,16.691358024691354,0)" xlink:href="#J"/><use transform="matrix(0.049382716049382706,0,0,0.049382716049382706,25.580246913580243,0)" xlink:href="#am"/><use transform="matrix(0.049382716049382706,0,0,0.049382716049382706,35.456790123456784,0)" xlink:href="#an"/><use transform="matrix(0.049382716049382706,0,0,0.049382716049382706,39.35802469135802,0)" xlink:href="#A"/><use transform="matrix(0.049382716049382706,0,0,0.049382716049382706,49.234567901234556,0)" xlink:href="#G"/></g><g id="t"><use transform="matrix(0.049382716049382706,0,0,0.049382716049382706,0,0)" xlink:href="#I"/><use transform="matrix(0.049382716049382706,0,0,0.049382716049382706,5.876543209876542,0)" xlink:href="#E"/><use transform="matrix(0.049382716049382706,0,0,0.049382716049382706,15.75308641975308,0)" xlink:href="#J"/><use transform="matrix(0.049382716049382706,0,0,0.049382716049382706,24.641975308641968,0)" xlink:href="#R"/><use transform="matrix(0.049382716049382706,0,0,0.049382716049382706,34.518518518518505,0)" xlink:href="#an"/><use transform="matrix(0.049382716049382706,0,0,0.049382716049382706,38.41975308641974,0)" xlink:href="#M"/></g><path fill="#3a414a" d="M212-179c-10-28-35-45-73-45-59 0-87 40-87 99 0 60 29 101 89 101 43 0 62-24 78-52l27 14C228-24 195 4 139 4 59 4 22-46 18-125c-6-104 99-153 187-111 19 9 31 26 39 46" id="ao"/><path fill="#3a414a" d="M96-169c-40 0-48 33-48 73s9 75 48 75c24 0 41-14 43-38l32 2c-6 37-31 61-74 61-59 0-76-41-82-99-10-93 101-131 147-64 4 7 5 14 7 22l-32 3c-4-21-16-35-41-35" id="ap"/><g id="u"><use transform="matrix(0.049382716049382706,0,0,0.049382716049382706,0,0)" xlink:href="#ao"/><use transform="matrix(0.049382716049382706,0,0,0.049382716049382706,12.790123456790122,0)" xlink:href="#P"/><use transform="matrix(0.049382716049382706,0,0,0.049382716049382706,22.666666666666664,0)" xlink:href="#E"/><use transform="matrix(0.049382716049382706,0,0,0.049382716049382706,32.5432098765432,0)" xlink:href="#ap"/><use transform="matrix(0.049382716049382706,0,0,0.049382716049382706,41.43209876543209,0)" xlink:href="#Q"/></g><g id="v"><use transform="matrix(0.049382716049382706,0,0,0.049382716049382706,0,0)" xlink:href="#C"/><use transform="matrix(0.049382716049382706,0,0,0.049382716049382706,9.87654320987654,0)" xlink:href="#A"/><use transform="matrix(0.049382716049382706,0,0,0.049382716049382706,19.75308641975308,0)" xlink:href="#D"/><use transform="matrix(0.049382716049382706,0,0,0.049382716049382706,34.51851851851851,0)" xlink:href="#E"/></g><path fill="#3a414a" d="M85-194c31 0 48 13 60 33l-1-100h32l1 261h-30c-2-10 0-23-3-31C134-8 116 4 85 4 32 4 16-35 15-94c0-66 23-100 70-100zm9 24c-40 0-46 34-46 75 0 40 6 74 45 74 42 0 51-32 51-76 0-42-9-74-50-73" id="aq"/><g id="w"><use transform="matrix(0.049382716049382706,0,0,0.049382716049382706,0,0)" xlink:href="#E"/><use transform="matrix(0.049382716049382706,0,0,0.049382716049382706,9.87654320987654,0)" xlink:href="#B"/><use transform="matrix(0.049382716049382706,0,0,0.049382716049382706,19.75308641975308,0)" xlink:href="#aq"/></g><path fill="#3a414a" d="M206 0h-36l-40-164L89 0H53L-1-190h32L70-26l43-164h34l41 164 42-164h31" id="ar"/><g id="x"><use transform="matrix(0.049382716049382706,0,0,0.049382716049382706,0,0)" xlink:href="#B"/><use transform="matrix(0.049382716049382706,0,0,0.049382716049382706,9.87654320987654,0)" xlink:href="#E"/><use transform="matrix(0.049382716049382706,0,0,0.049382716049382706,19.75308641975308,0)" xlink:href="#ar"/></g><path fill="#3a414a" d="M232-93c-1 65-40 97-104 97C67 4 28-28 28-90v-158h33c8 89-33 224 67 224 102 0 64-133 71-224h33v155" id="as"/><g id="y"><use transform="matrix(0.06172839506172839,0,0,0.06172839506172839,0,0)" xlink:href="#as"/><use transform="matrix(0.06172839506172839,0,0,0.06172839506172839,15.987654320987653,0)" xlink:href="#J"/><use transform="matrix(0.06172839506172839,0,0,0.06172839506172839,27.098765432098766,0)" xlink:href="#E"/><use transform="matrix(0.06172839506172839,0,0,0.06172839506172839,39.44444444444444,0)" xlink:href="#I"/></g></defs></g></svg>